<svg xmlns="http://www.w3.org/2000/svg" width="816.78" height="139.22" viewBox="0 0 816.78 139.22">
  <path id="パス_10" data-name="パス 10" d="M-548.24,0l25.28-60.24h.48L-497.28,0h-8.88l-18.88-48.08,5.52-3.6L-540.64,0Zm14.8-21.92h21.52l2.56,6.72h-26.32Zm51.84-11.2.72,9.6-.4-1.28a13.864,13.864,0,0,1,3.72-5.16,19.817,19.817,0,0,1,5.12-3.28,12.087,12.087,0,0,1,4.68-1.16l-.4,7.36a11.257,11.257,0,0,0-6.6,1.44,12.439,12.439,0,0,0-4.48,4.48,11.675,11.675,0,0,0-1.64,6V0h-7.36V-33.12Zm26.64-14.56h7.44v14.72h9.12v5.84h-9.12V0h-7.44V-27.12h-6.08v-5.84h6.08ZM-390.4.8a17.84,17.84,0,0,1-8.44-2,14.636,14.636,0,0,1-6-5.88,18.954,18.954,0,0,1-2.2-9.48,18.874,18.874,0,0,1,2.32-9.56,16.1,16.1,0,0,1,6.2-6.2A17.221,17.221,0,0,1-390-34.48a13.883,13.883,0,0,1,7.84,2.12,15.262,15.262,0,0,1,4.88,5l-.48,1.28.72-7.04h6.88V0h-7.44V-8.64l.8,1.92a7.947,7.947,0,0,1-1.4,2.04,16.457,16.457,0,0,1-2.88,2.52A17.126,17.126,0,0,1-385.2-.04,15.194,15.194,0,0,1-390.4.8Zm2-6.16a11.83,11.83,0,0,0,5.04-1.04,10.037,10.037,0,0,0,3.72-2.92,10.814,10.814,0,0,0,2.04-4.52v-6.48a10.171,10.171,0,0,0-2.24-4.2,11.161,11.161,0,0,0-3.84-2.8,12.032,12.032,0,0,0-4.96-1,10.641,10.641,0,0,0-5.44,1.44,10.757,10.757,0,0,0-3.96,4,11.777,11.777,0,0,0-1.48,6A11.5,11.5,0,0,0-398-11.04a11.31,11.31,0,0,0,4.08,4.16A10.625,10.625,0,0,0-388.4-5.36Zm37.76-27.76.64,8.08-.32-1.28a12.737,12.737,0,0,1,5.2-5.88,15.633,15.633,0,0,1,8.32-2.2,10.955,10.955,0,0,1,7.72,2.76A9.533,9.533,0,0,1-326-24.48V0h-7.52V-21.84a6.892,6.892,0,0,0-1.56-4.44,5.746,5.746,0,0,0-4.6-1.72,8.948,8.948,0,0,0-5.2,1.6,10.8,10.8,0,0,0-3.64,4.4,15.039,15.039,0,0,0-1.32,6.48V0h-7.44V-33.12ZM-299.6.8a15.96,15.96,0,0,1-8.28-2.2,15.629,15.629,0,0,1-5.88-6.24,19.466,19.466,0,0,1-2.16-9.32,18.469,18.469,0,0,1,2.28-9.44,15.421,15.421,0,0,1,6.2-6,18.48,18.48,0,0,1,8.8-2.08,17.319,17.319,0,0,1,7.48,1.68,13.467,13.467,0,0,1,5.56,4.64l-.32,2.64v-36.4h7.36V0H-286V-8.24l.8,2.08a18.141,18.141,0,0,1-6,5A17.593,17.593,0,0,1-299.6.8Zm2.32-6.32A12.372,12.372,0,0,0-292-6.6a10.427,10.427,0,0,0,3.84-3A11.665,11.665,0,0,0-286-14.16V-20.4a9.946,9.946,0,0,0-2.28-4.2,12.453,12.453,0,0,0-3.92-2.88,11.718,11.718,0,0,0-5.08-1.08,10.778,10.778,0,0,0-5.56,1.48,11.281,11.281,0,0,0-4.04,4.04,11.374,11.374,0,0,0-1.52,5.92,11.432,11.432,0,0,0,1.52,5.88,11.727,11.727,0,0,0,4.08,4.16A10.42,10.42,0,0,0-297.28-5.52ZM-238.48,0V-57.84h15.76a36.349,36.349,0,0,1,14.6,2.64,26.384,26.384,0,0,1,9.72,6.96,28.187,28.187,0,0,1,5.4,9.56,33.314,33.314,0,0,1,1.72,10.44,29,29,0,0,1-2.28,11.76,26.2,26.2,0,0,1-6.28,8.88A28.171,28.171,0,0,1-209-1.96,30.491,30.491,0,0,1-219.92,0Zm7.76-7.44h9.28a26.158,26.158,0,0,0,8.84-1.44,20.7,20.7,0,0,0,7.04-4.16,18.775,18.775,0,0,0,4.68-6.68,22.852,22.852,0,0,0,1.68-9,23.367,23.367,0,0,0-1.76-9.4,19.229,19.229,0,0,0-4.8-6.76A21.025,21.025,0,0,0-212.64-49a23.4,23.4,0,0,0-8.08-1.4h-10Zm66,8.24a19.709,19.709,0,0,1-9.76-2.28,15.884,15.884,0,0,1-6.28-6.24,18.382,18.382,0,0,1-2.2-9.08,16.516,16.516,0,0,1,2.48-8.88,18.636,18.636,0,0,1,6.64-6.4,18.233,18.233,0,0,1,9.28-2.4,15.77,15.77,0,0,1,10.88,3.84,19.379,19.379,0,0,1,5.84,10.56l-27.28,9.6-1.76-4.4,22.4-8.16-1.6,1.04a11.087,11.087,0,0,0-3.2-4.6,8.546,8.546,0,0,0-5.84-1.96,10.152,10.152,0,0,0-5.44,1.48,10.359,10.359,0,0,0-3.76,4.04,12.256,12.256,0,0,0-1.36,5.84,12.264,12.264,0,0,0,1.44,6.04,10.589,10.589,0,0,0,3.96,4.08,11.082,11.082,0,0,0,5.72,1.48,11.408,11.408,0,0,0,4.2-.8,16.961,16.961,0,0,0,3.8-2.08l3.44,5.52a22.939,22.939,0,0,1-5.56,2.72A18.811,18.811,0,0,1-164.72.8ZM-129.2.64A19.4,19.4,0,0,1-136.04-.6a13.281,13.281,0,0,1-5.48-3.72l3.12-4.32a15.466,15.466,0,0,0,4.28,3,10.472,10.472,0,0,0,4.36,1,10.453,10.453,0,0,0,2.96-.4,4.7,4.7,0,0,0,2.2-1.32,3.6,3.6,0,0,0,.84-2.52,3.573,3.573,0,0,0-1.16-2.8,8.785,8.785,0,0,0-2.96-1.68q-1.8-.64-3.8-1.2a14.259,14.259,0,0,1-6.24-3.76,8.418,8.418,0,0,1-2.16-5.84,9.654,9.654,0,0,1,1.32-4.92,9.974,9.974,0,0,1,3.92-3.72,13.144,13.144,0,0,1,6.44-1.44,20.858,20.858,0,0,1,6.16.84,15.475,15.475,0,0,1,5.12,2.76L-120.08-26a8.755,8.755,0,0,0-3.44-2.24,12.643,12.643,0,0,0-3.6-.8,6.123,6.123,0,0,0-2.6.4,5.278,5.278,0,0,0-2.04,1.36,2.99,2.99,0,0,0-.8,2.08,3.539,3.539,0,0,0,1.12,2.72,7.891,7.891,0,0,0,2.92,1.64q1.8.6,3.56,1.24a17.421,17.421,0,0,1,4.4,1.92,9.92,9.92,0,0,1,3.08,2.96,7.832,7.832,0,0,1,1.16,4.4,11.1,11.1,0,0,1-1.4,5.48,9.948,9.948,0,0,1-4.24,4A15.608,15.608,0,0,1-129.2.64Zm23.28-33.76h7.44V0h-7.44Zm-.56-12a3.749,3.749,0,0,1,1.4-2.96,4.628,4.628,0,0,1,3.08-1.2,4.338,4.338,0,0,1,3,1.2,3.843,3.843,0,0,1,1.32,2.96,3.809,3.809,0,0,1-1.32,3,4.42,4.42,0,0,1-3,1.16,4.628,4.628,0,0,1-3.08-1.2A3.749,3.749,0,0,1-106.48-45.12Zm36.8,61.52a22.6,22.6,0,0,1-6.48-.84,18.87,18.87,0,0,1-5.08-2.36A35.269,35.269,0,0,1-85.6,9.76l4.32-5.04a22.788,22.788,0,0,0,5.36,3.84,13.4,13.4,0,0,0,6.08,1.36,14.7,14.7,0,0,0,6.36-1.24,9.13,9.13,0,0,0,3.96-3.44A9.462,9.462,0,0,0-58.16.16l.08-8.96.64,1.44a12.671,12.671,0,0,1-5.2,5.8A16.817,16.817,0,0,1-71.76.8a15.737,15.737,0,0,1-8.36-2.32A17.388,17.388,0,0,1-86.2-7.8a17.551,17.551,0,0,1-2.28-8.92,17.322,17.322,0,0,1,2.4-9.16,18.04,18.04,0,0,1,6.32-6.28,16.5,16.5,0,0,1,8.56-2.32,17.887,17.887,0,0,1,8.04,1.8,12.347,12.347,0,0,1,5.32,4.6l-.4,1.36.8-6.4h6.8V.24A14.991,14.991,0,0,1-52.96,8.4a16.284,16.284,0,0,1-6.56,5.84A22.147,22.147,0,0,1-69.68,16.4ZM-81.04-16.88a11.5,11.5,0,0,0,1.52,5.84A11.213,11.213,0,0,0-75.4-6.88a11.279,11.279,0,0,0,5.8,1.52,12.643,12.643,0,0,0,5.32-1.08A11.288,11.288,0,0,0-60.32-9.4a10.79,10.79,0,0,0,2.24-4.36v-6.56a10.484,10.484,0,0,0-2.4-4.2,11.786,11.786,0,0,0-4-2.8,12.8,12.8,0,0,0-5.12-1,11.768,11.768,0,0,0-5.8,1.44,10.705,10.705,0,0,0-4.12,4.04A11.589,11.589,0,0,0-81.04-16.88Zm49.92-16.24.64,8.08-.32-1.28a12.737,12.737,0,0,1,5.2-5.88,15.633,15.633,0,0,1,8.32-2.2,10.955,10.955,0,0,1,7.72,2.76,9.533,9.533,0,0,1,3.08,7.16V0H-14V-21.84a6.892,6.892,0,0,0-1.56-4.44A5.746,5.746,0,0,0-20.16-28a8.949,8.949,0,0,0-5.2,1.6A10.8,10.8,0,0,0-29-22a15.038,15.038,0,0,0-1.32,6.48V0h-7.44V-33.12Zm-781.94,72.2-.18,2.16.78-1.08,17.76-18.54h7.5l-17.94,18.6L-786.18,65h-7.38L-809.4,43.94l-3.66,3.54V65h-5.88V21.62h5.88Zm33.48,1.08H-774V65h-5.58Zm-.42-9a2.812,2.812,0,0,1,1.05-2.22,3.471,3.471,0,0,1,2.31-.9,3.253,3.253,0,0,1,2.25.9,2.882,2.882,0,0,1,.99,2.22,2.857,2.857,0,0,1-.99,2.25,3.315,3.315,0,0,1-2.25.87,3.471,3.471,0,0,1-2.31-.9A2.812,2.812,0,0,1-780,31.16Zm20.64,9,.54,7.2-.3-.96a10.4,10.4,0,0,1,2.79-3.87,14.863,14.863,0,0,1,3.84-2.46,9.065,9.065,0,0,1,3.51-.87l-.3,5.52a8.443,8.443,0,0,0-4.95,1.08,9.33,9.33,0,0,0-3.36,3.36,8.756,8.756,0,0,0-1.23,4.5V65h-5.52V40.16Zm19.68,36.78,16.38-36.78h5.16l-16.02,36.78Zm6.12-11.76L-745.5,40.16h6.3l10.02,22.2Zm29.28.78a7.757,7.757,0,0,1-5.55-2.07,7.45,7.45,0,0,1-2.31-5.37V40.16h5.58V56.54a5.513,5.513,0,0,0,1.17,3.3,4.25,4.25,0,0,0,3.33,1.32,6.113,6.113,0,0,0,3.75-1.23,8.864,8.864,0,0,0,2.67-3.36,11.047,11.047,0,0,0,1.02-4.83V40.16h5.58V65h-5.1l-.48-6.12.3,1.08a8.667,8.667,0,0,1-2.19,3.09,11.008,11.008,0,0,1-3.45,2.13A11.684,11.684,0,0,1-704.28,65.96Zm50.46-16.32a9.874,9.874,0,0,0,1.41,5.25,10.2,10.2,0,0,0,3.75,3.63,10.558,10.558,0,0,0,5.28,1.32,11.141,11.141,0,0,0,5.46-1.32,9.844,9.844,0,0,0,3.78-3.63,10.038,10.038,0,0,0,1.38-5.25V21.62h5.7v28.2a15.416,15.416,0,0,1-2.19,8.28,14.857,14.857,0,0,1-5.88,5.46,17.6,17.6,0,0,1-8.25,1.92,17.423,17.423,0,0,1-8.22-1.92,14.7,14.7,0,0,1-5.82-5.46,15.58,15.58,0,0,1-2.16-8.28V21.62h5.76Zm42.24-9.48.48,6.06-.24-.96a9.552,9.552,0,0,1,3.9-4.41,11.725,11.725,0,0,1,6.24-1.65,8.216,8.216,0,0,1,5.79,2.07,7.15,7.15,0,0,1,2.31,5.37V65h-5.64V48.62a5.169,5.169,0,0,0-1.17-3.33A4.31,4.31,0,0,0-603.36,44a6.712,6.712,0,0,0-3.9,1.2,8.1,8.1,0,0,0-2.73,3.3,11.279,11.279,0,0,0-.99,4.86V65h-5.58V40.16Zm28.2,0h5.58V65h-5.58Zm-.42-9a2.812,2.812,0,0,1,1.05-2.22,3.471,3.471,0,0,1,2.31-.9,3.253,3.253,0,0,1,2.25.9,2.882,2.882,0,0,1,.99,2.22,2.857,2.857,0,0,1-.99,2.25,3.315,3.315,0,0,1-2.25.87,3.471,3.471,0,0,1-2.31-.9A2.812,2.812,0,0,1-583.8,31.16Zm25.74,34.56-13.8-25.56h6.6l9.36,19.74-3.42-.12,8.58-19.62h6.24l-13.26,25.56Zm30.48-.12a14.782,14.782,0,0,1-7.32-1.71,11.913,11.913,0,0,1-4.71-4.68,13.787,13.787,0,0,1-1.65-6.81,12.387,12.387,0,0,1,1.86-6.66,13.976,13.976,0,0,1,4.98-4.8,13.675,13.675,0,0,1,6.96-1.8,11.828,11.828,0,0,1,8.16,2.88,14.534,14.534,0,0,1,4.38,7.92l-20.46,7.2-1.32-3.3,16.8-6.12-1.2.78a8.315,8.315,0,0,0-2.4-3.45,6.41,6.41,0,0,0-4.38-1.47,7.614,7.614,0,0,0-4.08,1.11,7.769,7.769,0,0,0-2.82,3.03,9.192,9.192,0,0,0-1.02,4.38,9.2,9.2,0,0,0,1.08,4.53,7.942,7.942,0,0,0,2.97,3.06,8.311,8.311,0,0,0,4.29,1.11,8.556,8.556,0,0,0,3.15-.6,12.722,12.722,0,0,0,2.85-1.56l2.58,4.14a17.206,17.206,0,0,1-4.17,2.04A14.108,14.108,0,0,1-527.58,65.6Zm24.66-25.44.54,7.2-.3-.96a10.4,10.4,0,0,1,2.79-3.87,14.862,14.862,0,0,1,3.84-2.46,9.065,9.065,0,0,1,3.51-.87l-.3,5.52a8.443,8.443,0,0,0-4.95,1.08,9.329,9.329,0,0,0-3.36,3.36,8.756,8.756,0,0,0-1.23,4.5V65h-5.52V40.16Zm24.54,25.32a14.548,14.548,0,0,1-5.13-.93,9.961,9.961,0,0,1-4.11-2.79l2.34-3.24a11.6,11.6,0,0,0,3.21,2.25,7.854,7.854,0,0,0,3.27.75,7.84,7.84,0,0,0,2.22-.3,3.523,3.523,0,0,0,1.65-.99,2.7,2.7,0,0,0,.63-1.89,2.68,2.68,0,0,0-.87-2.1,6.589,6.589,0,0,0-2.22-1.26q-1.35-.48-2.85-.9a10.694,10.694,0,0,1-4.68-2.82,6.314,6.314,0,0,1-1.62-4.38,7.24,7.24,0,0,1,.99-3.69,7.481,7.481,0,0,1,2.94-2.79,9.858,9.858,0,0,1,4.83-1.08,15.643,15.643,0,0,1,4.62.63,11.607,11.607,0,0,1,3.84,2.07l-2.22,3.48a6.566,6.566,0,0,0-2.58-1.68,9.482,9.482,0,0,0-2.7-.6,4.592,4.592,0,0,0-1.95.3,3.958,3.958,0,0,0-1.53,1.02,2.242,2.242,0,0,0-.6,1.56,2.654,2.654,0,0,0,.84,2.04,5.918,5.918,0,0,0,2.19,1.23q1.35.45,2.67.93a13.065,13.065,0,0,1,3.3,1.44,7.44,7.44,0,0,1,2.31,2.22,5.874,5.874,0,0,1,.87,3.3,8.324,8.324,0,0,1-1.05,4.11,7.461,7.461,0,0,1-3.18,3A11.706,11.706,0,0,1-478.38,65.48Zm17.46-25.32h5.58V65h-5.58Zm-.42-9a2.812,2.812,0,0,1,1.05-2.22,3.471,3.471,0,0,1,2.31-.9,3.253,3.253,0,0,1,2.25.9,2.882,2.882,0,0,1,.99,2.22,2.857,2.857,0,0,1-.99,2.25,3.315,3.315,0,0,1-2.25.87,3.471,3.471,0,0,1-2.31-.9A2.812,2.812,0,0,1-461.34,31.16Zm18.06-1.92h5.58V40.28h6.84v4.38h-6.84V65h-5.58V44.66h-4.56V40.28h4.56Zm21.24,47.7,16.38-36.78h5.16l-16.02,36.78Zm6.12-11.76-11.94-25.02h6.3l10.02,22.2Zm51.18-8.04a18.7,18.7,0,0,1-2.01,9,13.9,13.9,0,0,1-5.49,5.67,17.516,17.516,0,0,1-7.98,2.13V68.3a10.264,10.264,0,0,0,6.93-2.97q2.73-2.73,2.73-8.37V21.62h5.82Zm18.96,8.82a7.757,7.757,0,0,1-5.55-2.07,7.45,7.45,0,0,1-2.31-5.37V40.16h5.58V56.54a5.513,5.513,0,0,0,1.17,3.3,4.25,4.25,0,0,0,3.33,1.32,6.113,6.113,0,0,0,3.75-1.23,8.865,8.865,0,0,0,2.67-3.36,11.046,11.046,0,0,0,1.02-4.83V40.16h5.58V65h-5.1l-.48-6.12.3,1.08a8.667,8.667,0,0,1-2.19,3.09,11.008,11.008,0,0,1-3.45,2.13A11.684,11.684,0,0,1-345.78,65.96Zm29.88-25.8.48,6.06-.24-.96a9.553,9.553,0,0,1,3.9-4.41,11.725,11.725,0,0,1,6.24-1.65,8.216,8.216,0,0,1,5.79,2.07,7.15,7.15,0,0,1,2.31,5.37V65h-5.64V48.62a5.169,5.169,0,0,0-1.17-3.33A4.31,4.31,0,0,0-307.68,44a6.711,6.711,0,0,0-3.9,1.2,8.1,8.1,0,0,0-2.73,3.3,11.279,11.279,0,0,0-.99,4.86V65h-5.58V40.16Zm28.2,0h5.58V65h-5.58Zm-.42-9a2.812,2.812,0,0,1,1.05-2.22,3.471,3.471,0,0,1,2.31-.9,3.253,3.253,0,0,1,2.25.9,2.882,2.882,0,0,1,.99,2.22,2.857,2.857,0,0,1-.99,2.25,3.315,3.315,0,0,1-2.25.87,3.471,3.471,0,0,1-2.31-.9A2.812,2.812,0,0,1-288.12,31.16Zm13.5,21.18a12.975,12.975,0,0,1,1.77-6.72,12.8,12.8,0,0,1,4.89-4.74,14.287,14.287,0,0,1,7.08-1.74,14.2,14.2,0,0,1,7.14,1.74A12.269,12.269,0,0,1-249,45.62a13.515,13.515,0,0,1,1.68,6.72A13.683,13.683,0,0,1-249,59.09a12.156,12.156,0,0,1-4.77,4.77,14.365,14.365,0,0,1-7.17,1.74,14.734,14.734,0,0,1-7.05-1.65,12.28,12.28,0,0,1-4.86-4.62A13.4,13.4,0,0,1-274.62,52.34Zm5.58.06a8.826,8.826,0,0,0,1.08,4.35,8.316,8.316,0,0,0,2.91,3.09A7.507,7.507,0,0,0-261,60.98a7.722,7.722,0,0,0,4.17-1.14,7.862,7.862,0,0,0,2.85-3.09,9.241,9.241,0,0,0,1.02-4.35,9.241,9.241,0,0,0-1.02-4.35,8.083,8.083,0,0,0-2.85-3.12A7.574,7.574,0,0,0-261,43.76a7.331,7.331,0,0,0-4.11,1.2,8.555,8.555,0,0,0-2.88,3.15A8.9,8.9,0,0,0-269.04,52.4Zm34.26-12.24.54,7.2-.3-.96a10.4,10.4,0,0,1,2.79-3.87,14.862,14.862,0,0,1,3.84-2.46,9.065,9.065,0,0,1,3.51-.87l-.3,5.52a8.443,8.443,0,0,0-4.95,1.08,9.329,9.329,0,0,0-3.36,3.36,8.756,8.756,0,0,0-1.23,4.5V65h-5.52V40.16ZM-165,61.76a25.441,25.441,0,0,1-2.94,1.62,21.648,21.648,0,0,1-4.35,1.5,23.16,23.16,0,0,1-5.43.6,23.532,23.532,0,0,1-9.09-1.8,20.28,20.28,0,0,1-6.87-4.74,21.29,21.29,0,0,1-4.35-6.93,22.866,22.866,0,0,1-1.53-8.37,24.655,24.655,0,0,1,1.59-8.97,21.5,21.5,0,0,1,4.47-7.14,20.288,20.288,0,0,1,6.81-4.71,21.678,21.678,0,0,1,8.61-1.68A22.5,22.5,0,0,1-171,22.19a24.742,24.742,0,0,1,5.46,2.49l-2.34,5.4a26.494,26.494,0,0,0-4.35-2.28,14.4,14.4,0,0,0-5.67-1.08,14.541,14.541,0,0,0-6,1.26,15.53,15.53,0,0,0-4.98,3.54,16.858,16.858,0,0,0-3.39,5.31,17.142,17.142,0,0,0-1.23,6.51,18.958,18.958,0,0,0,1.11,6.57,15.334,15.334,0,0,0,3.18,5.25,14.639,14.639,0,0,0,5.01,3.48,16.6,16.6,0,0,0,6.6,1.26,15.9,15.9,0,0,0,5.88-1.02,18.335,18.335,0,0,0,4.26-2.28Zm6.24-9.42a12.975,12.975,0,0,1,1.77-6.72,12.8,12.8,0,0,1,4.89-4.74,14.286,14.286,0,0,1,7.08-1.74,14.2,14.2,0,0,1,7.14,1.74,12.269,12.269,0,0,1,4.74,4.74,13.515,13.515,0,0,1,1.68,6.72,13.683,13.683,0,0,1-1.68,6.75,12.156,12.156,0,0,1-4.77,4.77,14.365,14.365,0,0,1-7.17,1.74,14.734,14.734,0,0,1-7.05-1.65,12.28,12.28,0,0,1-4.86-4.62A13.4,13.4,0,0,1-158.76,52.34Zm5.58.06a8.826,8.826,0,0,0,1.08,4.35,8.316,8.316,0,0,0,2.91,3.09,7.507,7.507,0,0,0,4.05,1.14,7.722,7.722,0,0,0,4.17-1.14,7.862,7.862,0,0,0,2.85-3.09,9.241,9.241,0,0,0,1.02-4.35,9.241,9.241,0,0,0-1.02-4.35,8.083,8.083,0,0,0-2.85-3.12,7.574,7.574,0,0,0-4.17-1.17,7.331,7.331,0,0,0-4.11,1.2,8.555,8.555,0,0,0-2.88,3.15A8.9,8.9,0,0,0-153.18,52.4Zm29.28-33.84h5.58V65h-5.58Zm15.24,0h5.58V65h-5.58ZM-81.9,65.6a14.782,14.782,0,0,1-7.32-1.71,11.913,11.913,0,0,1-4.71-4.68,13.787,13.787,0,0,1-1.65-6.81,12.387,12.387,0,0,1,1.86-6.66,13.977,13.977,0,0,1,4.98-4.8,13.675,13.675,0,0,1,6.96-1.8,11.828,11.828,0,0,1,8.16,2.88,14.535,14.535,0,0,1,4.38,7.92l-20.46,7.2-1.32-3.3,16.8-6.12-1.2.78a8.315,8.315,0,0,0-2.4-3.45,6.41,6.41,0,0,0-4.38-1.47,7.614,7.614,0,0,0-4.08,1.11,7.77,7.77,0,0,0-2.82,3.03,9.192,9.192,0,0,0-1.02,4.38,9.2,9.2,0,0,0,1.08,4.53,7.942,7.942,0,0,0,2.97,3.06,8.311,8.311,0,0,0,4.29,1.11,8.556,8.556,0,0,0,3.15-.6,12.721,12.721,0,0,0,2.85-1.56l2.58,4.14a17.2,17.2,0,0,1-4.17,2.04A14.109,14.109,0,0,1-81.9,65.6Zm31.62,11.7a16.953,16.953,0,0,1-4.86-.63,14.152,14.152,0,0,1-3.81-1.77,26.451,26.451,0,0,1-3.27-2.58l3.24-3.78a17.091,17.091,0,0,0,4.02,2.88,10.054,10.054,0,0,0,4.56,1.02,11.024,11.024,0,0,0,4.77-.93,6.848,6.848,0,0,0,2.97-2.58,7.1,7.1,0,0,0,1.02-3.81l.06-6.72.48,1.08A9.5,9.5,0,0,1-45,63.83a12.613,12.613,0,0,1-6.84,1.77,11.8,11.8,0,0,1-6.27-1.74,13.041,13.041,0,0,1-4.56-4.71,13.163,13.163,0,0,1-1.71-6.69,12.991,12.991,0,0,1,1.8-6.87,13.53,13.53,0,0,1,4.74-4.71,12.378,12.378,0,0,1,6.42-1.74,13.415,13.415,0,0,1,6.03,1.35,9.26,9.26,0,0,1,3.99,3.45l-.3,1.02.6-4.8H-36V65.18a11.243,11.243,0,0,1-1.74,6.12,12.213,12.213,0,0,1-4.92,4.38A16.611,16.611,0,0,1-50.28,77.3ZM-58.8,52.34a8.621,8.621,0,0,0,1.14,4.38,8.41,8.41,0,0,0,3.09,3.12,8.459,8.459,0,0,0,4.35,1.14,9.482,9.482,0,0,0,3.99-.81,8.466,8.466,0,0,0,2.97-2.22,8.092,8.092,0,0,0,1.68-3.27V49.76a7.863,7.863,0,0,0-1.8-3.15,8.84,8.84,0,0,0-3-2.1,9.6,9.6,0,0,0-3.84-.75,8.826,8.826,0,0,0-4.35,1.08,8.029,8.029,0,0,0-3.09,3.03A8.692,8.692,0,0,0-58.8,52.34ZM-14.82,65.6a14.782,14.782,0,0,1-7.32-1.71,11.913,11.913,0,0,1-4.71-4.68A13.787,13.787,0,0,1-28.5,52.4a12.387,12.387,0,0,1,1.86-6.66,13.977,13.977,0,0,1,4.98-4.8,13.675,13.675,0,0,1,6.96-1.8,11.828,11.828,0,0,1,8.16,2.88,14.535,14.535,0,0,1,4.38,7.92l-20.46,7.2-1.32-3.3,16.8-6.12-1.2.78a8.315,8.315,0,0,0-2.4-3.45,6.41,6.41,0,0,0-4.38-1.47,7.614,7.614,0,0,0-4.08,1.11,7.77,7.77,0,0,0-2.82,3.03,9.192,9.192,0,0,0-1.02,4.38,9.2,9.2,0,0,0,1.08,4.53,7.942,7.942,0,0,0,2.97,3.06A8.311,8.311,0,0,0-14.7,60.8a8.556,8.556,0,0,0,3.15-.6A12.721,12.721,0,0,0-8.7,58.64l2.58,4.14a17.2,17.2,0,0,1-4.17,2.04A14.109,14.109,0,0,1-14.82,65.6Z" transform="translate(818.94 61.92)"/>
</svg>
