<svg xmlns="http://www.w3.org/2000/svg" width="385.59" height="54.51" viewBox="0 0 385.59 54.51">
  <g id="グループ_24" data-name="グループ 24" transform="translate(-15.36 -6.1)">
    <path id="パス_9" data-name="パス 9" d="M13.66-12.2H10.4l.16.58h5.3c.28,0,.48-.1.52-.32-.66-.64-1.74-1.52-1.74-1.52ZM12.28-4.32V-8.94h1.76v4.62Zm1.98,1.74a2,2,0,0,0,1.18-.44V-8.74a1.279,1.279,0,0,0,.7-.36l-1.56-1.2-.72.78h-1.5l-1.46-.64v8.14h.22c.58,0,1.16-.32,1.16-.44v-1.3h1.76v1.18ZM5.38-9.66v-1.78H7.92v3.76a4.462,4.462,0,0,0-2.52-2Zm12-6.74-.88,1.02H9.8L7.92-16.2v3.98c-.6-.58-1.26-1.16-1.26-1.16L5.7-12.02H5.38v-4c.54-.08.68-.26.74-.56l-2.58-.28v4.84H.86l.16.58H3.3A21.615,21.615,0,0,1,.36-3.16l.28.24A15.254,15.254,0,0,0,3.54-6.8V1.68h.38c.68,0,1.46-.38,1.46-.58V-9.24A7.784,7.784,0,0,1,6.54-6.38a.864.864,0,0,0,1.38-.04v8.1h.32c.78,0,1.44-.42,1.44-.66V-14.8H16.7V-.88c0,.28-.08.42-.42.42C15.9-.46,14.2-.6,14.2-.6v.3a2.279,2.279,0,0,1,1.5.64,2.38,2.38,0,0,1,.4,1.3c2.16-.2,2.4-.96,2.4-2.32v-13.8a1.375,1.375,0,0,0,.84-.42ZM35.72.2H30.96V-5.74h6.02c.28,0,.5-.1.54-.32-.86-.74-2.26-1.78-2.26-1.78L34.02-6.32H30.96V-11.4h6.66c.3,0,.5-.1.56-.32-.9-.78-2.26-1.76-2.26-1.76l-1.22,1.5H30.96v-3.96c.52-.08.68-.28.72-.58L28.9-16.8v4.82H25.26a24.8,24.8,0,0,0,1.36-2.94c.46.02.7-.16.78-.4l-2.82-.86A27.05,27.05,0,0,1,20.54-6.8l.26.18a16.828,16.828,0,0,0,4.14-4.78H28.9v5.08H23.02l.16.58H28.9V.2H20.7l.18.58H38.76c.3,0,.5-.1.56-.32C38.44-.32,37-1.4,37-1.4Zm23-10.52c.28,0,.5-.1.56-.32-.88-.78-2.36-1.9-2.36-1.9l-1.3,1.64H50.56c.14-1.62.16-3.32.2-5.06.48-.08.66-.28.72-.58l-2.84-.28c0,2.06.02,4.04-.14,5.92H40.86l.18.58h7.42C48-5.8,46.36-1.86,40.66,1.4l.22.32c7.08-2.92,9-7.02,9.58-11.76.56,3.98,2.12,8.84,7.16,11.76a2.08,2.08,0,0,1,1.84-1.8L59.5-.3c-5.76-2.44-8-6.28-8.7-10.02Zm9.54-6.46A7.024,7.024,0,0,1,69.5-13.3c1.68,1.54,3.68-1.96-1.04-3.6Zm-4.5.32a7.434,7.434,0,0,1,1.72,3.4c1.74,1.34,3.38-2.26-1.52-3.54ZM75.88-5.12H71.04V-6.48c.44-.06.64-.22.68-.5L71.38-7A29.044,29.044,0,0,0,75-8.8c.44-.04.66-.08.82-.24l-1.9-1.8L72.78-9.78H64.22l.16.58h8.16A22.551,22.551,0,0,1,70.5-7.08l-1.46-.14v2.1H60.86l.16.58h8.02V-.9c0,.3-.1.42-.48.42-.52,0-3.36-.2-3.36-.2V-.4a4.505,4.505,0,0,1,2.2.74,1.946,1.946,0,0,1,.62,1.38c2.66-.24,3.02-1.06,3.02-2.5V-4.54H78.7c.3,0,.5-.1.56-.32-.8-.74-2.18-1.82-2.18-1.82Zm1.56-8.56-1.16,1.14H73a23.342,23.342,0,0,0,3.28-3.04c.44.04.7-.08.8-.32l-2.64-.96a27.209,27.209,0,0,1-2.16,4.32H63.56A6.646,6.646,0,0,0,63.12-14l-.32.02a3.49,3.49,0,0,1-1.32,3.28,1.068,1.068,0,0,0-.64,1.36,1.1,1.1,0,0,0,1.68.24,3.087,3.087,0,0,0,1.1-2.86H76.3c-.28.76-.68,1.72-.98,2.34l.18.14a16.708,16.708,0,0,0,3.14-2.06c.42-.02.64-.06.8-.24Zm21.2-.86c.28,0,.5-.1.56-.32-.76-.7-2.02-1.64-2.02-1.64l-1.12,1.38H88.14l.16.58ZM90.98-7.18v-4.18h4.8v4.18Zm5.1,1.48a2.84,2.84,0,0,0,1.58-.48v-4.84a1.564,1.564,0,0,0,.84-.42l-2-1.48-.9.98H91.08l-1.9-.78V-5.4h.26c.74,0,1.54-.4,1.54-.58v-.64h4.8v.92Zm-6.1.58A10.806,10.806,0,0,1,91-.76c1.56,1.62,3.46-1.8-.78-4.46Zm-1.4-2.76c.28,0,.48-.1.52-.32-.68-.68-1.8-1.58-1.8-1.58l-.98,1.32H85.8c.02-.4.02-.78.02-1.14v-3.1H88.3a.515.515,0,0,0,.54-.3c-.72-.66-1.88-1.6-1.88-1.6l-1.02,1.34H83.68a22.235,22.235,0,0,0,.84-2.54c.44-.02.66-.2.72-.46l-2.56-.58A22.054,22.054,0,0,1,80.86-9.5l.3.18a11.142,11.142,0,0,0,2.28-3.38h.6v3.1c0,.38,0,.76-.02,1.14H80.88l.16.58H84a14.312,14.312,0,0,1-3.3,9.2l.22.18A10.405,10.405,0,0,0,85.4-5.24a7.329,7.329,0,0,1,1.58,3.68c1.72,1.52,3.46-2.2-1.48-4.18a16.839,16.839,0,0,0,.26-2.14ZM96.5.34H93.96a23.462,23.462,0,0,0,2.92-4.68c.44,0,.66-.18.74-.44l-2.68-.6A33.572,33.572,0,0,1,93.54.34H87.06l.14.58H99.02c.3,0,.5-.1.54-.32-.74-.7-1.96-1.7-1.96-1.7Zm4.3,1.38a10.564,10.564,0,0,0,4.38-4.1c.44.04.72-.1.82-.32l-2.44-1.04a13.564,13.564,0,0,1-3.02,5.24Zm5.76-5.16a7,7,0,0,1,1.72,3.16c1.68,1.24,3.2-2.1-1.52-3.3Zm6.9-3.08q.06-1.11.06-2.22V-10.5h3.16v3.98Zm3.22-8.36v3.8h-3.16v-3.8Zm-12.32,7.6h2.98V-4.7h-2.98Zm2.98-5.78v2.22h-2.98v-2.22Zm-2.98,2.8h2.98v2.4h-2.98Zm13-6.24-.88,1.04h-2.66l-2.04-.8v7.54a27.551,27.551,0,0,1-.24,4.1c-.58-.64-1.42-1.42-1.42-1.42l-.88,1.34h-.08v-8.36h1.82c.26,0,.46-.1.5-.32-.52-.6-1.44-1.48-1.44-1.48l-.78,1.22h-.1v-2.18c.48-.08.64-.28.7-.54l-2.52-.26v2.98h-2.98v-2.22c.46-.08.62-.26.66-.5l-2.42-.26v2.98h-1.7l.16.58h1.54V-4.7h-2.04l.16.56H111.2a1.18,1.18,0,0,0,.28-.04,10.473,10.473,0,0,1-2.64,5.62l.26.2a9.417,9.417,0,0,0,4.3-7.58h3.28V-.9c0,.3-.1.42-.44.42-.4,0-2.3-.12-2.3-.12v.3a2.761,2.761,0,0,1,1.64.64A2.449,2.449,0,0,1,116,1.66c2.24-.22,2.5-1,2.5-2.34V-14.56a1.564,1.564,0,0,0,.84-.42Zm21.36,6.18c.28,0,.5-.1.56-.32-.88-.78-2.36-1.9-2.36-1.9l-1.3,1.64h-5.06c.14-1.62.16-3.32.2-5.06.48-.08.66-.28.72-.58l-2.84-.28c0,2.06.02,4.04-.14,5.92h-7.64l.18.58h7.42c-.46,4.52-2.1,8.46-7.8,11.72l.22.32c7.08-2.92,9-7.02,9.58-11.76.56,3.98,2.12,8.84,7.16,11.76a2.08,2.08,0,0,1,1.84-1.8l.04-.22c-5.76-2.44-8-6.28-8.7-10.02Zm9.54-6.46a7.024,7.024,0,0,1,1.24,3.48c1.68,1.54,3.68-1.96-1.04-3.6Zm-4.5.32a7.434,7.434,0,0,1,1.72,3.4c1.74,1.34,3.38-2.26-1.52-3.54ZM155.88-5.12h-4.84V-6.48c.44-.06.64-.22.68-.5L151.38-7A29.044,29.044,0,0,0,155-8.8c.44-.04.66-.08.82-.24l-1.9-1.8-1.14,1.06h-8.56l.16.58h8.16a22.551,22.551,0,0,1-2.04,2.12l-1.46-.14v2.1h-8.18l.16.58h8.02V-.9c0,.3-.1.42-.48.42-.52,0-3.36-.2-3.36-.2V-.4a4.505,4.505,0,0,1,2.2.74,1.946,1.946,0,0,1,.62,1.38c2.66-.24,3.02-1.06,3.02-2.5V-4.54h7.66c.3,0,.5-.1.56-.32-.8-.74-2.18-1.82-2.18-1.82Zm1.56-8.56-1.16,1.14H153a23.342,23.342,0,0,0,3.28-3.04c.44.04.7-.08.8-.32l-2.64-.96a27.208,27.208,0,0,1-2.16,4.32h-8.72a6.646,6.646,0,0,0-.44-1.46l-.32.02a3.49,3.49,0,0,1-1.32,3.28,1.068,1.068,0,0,0-.64,1.36,1.1,1.1,0,0,0,1.68.24,3.087,3.087,0,0,0,1.1-2.86H156.3c-.28.76-.68,1.72-.98,2.34l.18.14a16.707,16.707,0,0,0,3.14-2.06c.42-.02.64-.06.8-.24Zm3.66.2h10.08c.28,0,.48-.1.54-.32-.74-.68-1.92-1.64-1.92-1.64l-1.08,1.38h-1.84v-2.02c.5-.06.68-.26.72-.54l-2.6-.24v2.8h-4.06Zm1.56.52a8.56,8.56,0,0,1,.92,3.6c1.42,1.46,3.3-1.6-.68-3.7ZM164.2-1V-5.3h3.98V-1Zm3.78-4.88H164.3l-1.92-.8V1.6h.28c.76,0,1.54-.4,1.54-.56V-.42h3.98V1.26h.28a2.685,2.685,0,0,0,1.52-.48V-4.98a1.421,1.421,0,0,0,.84-.42l-1.96-1.5Zm.88-2.74h-1.64a29.221,29.221,0,0,0,2.48-3.46.68.68,0,0,0,.74-.38l-2.56-.76a45.558,45.558,0,0,1-1.16,4.6H160.7l.16.58h10.52c.28,0,.48-.1.54-.32-.76-.68-1.96-1.64-1.96-1.64Zm8.76-7.6-1.1,1.04h-2.2l-2.1-1V1.72h.34c.92,0,1.5-.44,1.5-.6V-14.6h2.56c-.38,1.7-1.06,4.22-1.52,5.58a6.374,6.374,0,0,1,2.1,4.6c0,.72-.2,1.12-.56,1.32a.857.857,0,0,1-.48.1h-1.68v.3a2.042,2.042,0,0,1,1.14.44,3.5,3.5,0,0,1,.26,1.54c2.38-.08,3.18-1.18,3.18-3.2,0-1.68-.96-3.64-3.44-5.16a43.265,43.265,0,0,0,3.08-5c.48,0,.76-.06.92-.26Z" transform="translate(15 23)"/>
    <path id="パス_8" data-name="パス 8" d="M3.93-21.03a5.019,5.019,0,0,0,.3,2.07c.45,1.11,2.01,2.52,2.97,2.52.84,0,1.08-.69,2.25-.99,3.15-.72,11.1-2.04,12.42-2.04.6,0,.75.12.42.72a21.475,21.475,0,0,1-4.71,4.59,7.341,7.341,0,0,0-2.91-.81,9.422,9.422,0,0,0-2.01.09l-.09.54c1.26.51,2.34,1.02,2.34,1.95,0,2.01-3.87,9.45-9.72,13.26l.45.57c6.75-3.18,10.41-7.92,12.75-14.01a1.235,1.235,0,0,0,.09-.63c2.58-1.35,5.04-2.88,6.36-3.72.69-.45,2.16-.57,2.16-1.47,0-1.08-2.61-3.45-3.63-3.45-.63,0-1.02.51-1.92.63-1.95.3-12.51,1.47-14.91,1.47-.93,0-1.32-.54-2.07-1.47Zm27.93,7.86a4.684,4.684,0,0,0,.15,2.04c.51,1.26,2.16,3,3.21,3,1.02,0,1.41-.57,3.39-.78,2.28-.27,9.72-.72,11.82-.72,2.01,0,3.06.09,4.2.09s1.71-.39,1.71-1.11c0-1.08-1.5-1.86-3-1.86-.75,0-1.89.24-3.9.39-1.65.12-11.31.75-14.28.75-1.47,0-1.98-.87-2.76-1.98Zm36.39-8.94c1.38.21,2.19.48,2.34,1.47a73.1,73.1,0,0,1,.27,7.41c0,2.01-.03,6.42-.27,8.64-.12,1.26-.39,1.89-.39,2.61,0,1.71.72,3.36,2.01,3.36.96,0,1.29-.51,1.29-1.74,0-.45-.06-1.41-.09-2.88-.06-2.85-.09-7.2-.03-9.84a18.972,18.972,0,0,1,4.2,2.4c2.1,1.8,2.34,3.18,3.84,3.18A1.394,1.394,0,0,0,82.83-9a3.279,3.279,0,0,0-1.98-2.82,21.668,21.668,0,0,0-7.47-2.37c.06-1.74.12-3.6.27-4.86.15-1.05.75-1.29.75-2.04,0-.87-2.4-2.19-3.81-2.19a7.545,7.545,0,0,0-2.37.63ZM107.19-11.4a3.086,3.086,0,0,0-3.09-3.09,3.086,3.086,0,0,0-3.09,3.09,3.086,3.086,0,0,0,3.09,3.09A3.086,3.086,0,0,0,107.19-11.4Zm19.5-9.9c1.02,1.89,1.95,2.88,3.66,2.88a57.2,57.2,0,0,0,9.51-1.26c.96-.18,1.29-.54,1.29-1.08,0-.96-1.17-1.53-2.85-1.53-.51,0-.93.42-2.55.84a25.066,25.066,0,0,1-5.58.81,5.27,5.27,0,0,1-3.12-.99Zm-4.41,6.27a4.531,4.531,0,0,0,.18,1.77c.33.96,1.77,2.28,2.67,2.25a10.862,10.862,0,0,0,2.7-.75,52.275,52.275,0,0,1,5.61-1.05,1.871,1.871,0,0,1,.36,1.11c0,2.04-2.04,8.73-8.88,13.32l.51.57a20.26,20.26,0,0,0,10.8-11.37c.51-1.23,1.29-1.47,1.29-2.16,0-.57-.72-1.17-1.68-1.74,2.34-.21,4.47-.3,5.82-.3,1.62,0,2.97.27,3.57.27.75,0,1.08-.27,1.08-1.05,0-1.05-1.89-1.89-3.48-1.89a24.013,24.013,0,0,1-3,.57c-4.68.45-12.99,1.71-15.03,1.71-.84,0-1.41-.66-2.1-1.44Zm19.5-6.39a14.059,14.059,0,0,1,2.61,2.79c.51.72.78,1.23,1.26,1.23a.909.909,0,0,0,.93-.9,2.31,2.31,0,0,0-.93-1.74,10.333,10.333,0,0,0-3.51-1.8Zm2.31-2.43a12.03,12.03,0,0,1,2.55,2.61c.57.72.84,1.23,1.38,1.26a.844.844,0,0,0,.87-.96,2.243,2.243,0,0,0-1.11-1.8,10.3,10.3,0,0,0-3.39-1.53Zm26.85,1.71a13.238,13.238,0,0,1,2.43,3c.48.72.78,1.23,1.32,1.23a.811.811,0,0,0,.87-.84,2.253,2.253,0,0,0-.81-1.68,9.089,9.089,0,0,0-3.45-2.16Zm-6.51.03c1.38.24,2.1.45,2.19,1.17a44.877,44.877,0,0,1,.15,5.4c-1.83.18-4.08.42-5.85.6,0-1.02.03-2.07.06-2.61.09-1.05.51-1.08.51-1.74,0-1.05-2.1-2.01-3.21-2.01a5.508,5.508,0,0,0-2.07.57l.03.51c1.35.3,2.01.54,2.16,1.23a36.088,36.088,0,0,1,.21,4.32c-1.8.18-4.5.48-5.58.48-.81,0-1.32-.69-2.04-1.59l-.45.15a5.3,5.3,0,0,0,.21,1.92c.3.66,1.5,2.25,2.49,2.25a8.975,8.975,0,0,0,2.1-.69,26.876,26.876,0,0,1,3.27-.66,38.052,38.052,0,0,1-.54,4.68c0,1.05.69,2.64,1.65,2.64.84,0,1.2-.54,1.2-1.74,0-1.17-.03-3.45,0-5.88,1.68-.21,3.84-.42,5.85-.54-.03,3.48-.42,6.99-1.74,9.12a16.139,16.139,0,0,1-6.72,5.7l.33.57c3.87-1.17,6.87-3.09,8.58-5.55,1.77-2.46,2.01-6.03,2.13-9.99.42-.03.84-.03,1.23-.03,2.7,0,4.08.39,5.01.39.69,0,1.08-.18,1.08-.96,0-1.2-1.86-1.92-3.39-1.92-.63,0-.96.24-3.93.54.03-1.05.06-2.25.09-3.3.09-1.5.69-1.35.69-2.04,0-.87-1.98-2.19-3.51-2.19a5.511,5.511,0,0,0-2.19.66Zm8.91-2.28a13.021,13.021,0,0,1,2.46,2.73c.57.72.87,1.26,1.38,1.26a.819.819,0,0,0,.87-.87,2.363,2.363,0,0,0-.93-1.77,8.98,8.98,0,0,0-3.45-1.77Zm20.61,1.5c1.08.54,1.77,1.05,1.77,1.59a3.991,3.991,0,0,1-.81,1.71c-2.16,3.24-7.95,9.24-14.85,13.14l.36.63a40.469,40.469,0,0,0,11.7-6.96,2.569,2.569,0,0,1,.3,1.23,67.962,67.962,0,0,1-.33,7.98c-.12.99-.33,1.62-.33,2.19,0,1.29.63,2.79,1.95,2.79.9,0,1.35-.63,1.35-1.83,0-1.65-.21-6.09-.06-10.26.06-.81.3-1.29.3-1.77,0-.51-.72-1.08-1.65-1.71,1.83-1.74,3.33-3.36,4.41-4.47.84-.87,1.47-.84,1.47-1.62,0-.93-1.59-2.46-3.03-2.91a6.455,6.455,0,0,0-2.37-.24Zm18.54,2.61a20.083,20.083,0,0,1,5.1,4.92c.78,1.02,1.29,1.47,2.07,1.47a1.545,1.545,0,0,0,1.56-1.62c0-2.79-4.59-4.65-8.4-5.34Zm3.15,16.44c-1.05,0-2.07-1.05-2.85-1.89l-.45.27a6.46,6.46,0,0,0,.63,2.4c.63,1.08,2.58,2.7,4.08,2.7.78,0,1.14-.87,1.95-1.38,6.78-4.23,12.3-9.3,15.78-15.81l-.6-.39C229.89-11.91,218.46-3.84,215.64-3.84Zm33.75-21.33a10.536,10.536,0,0,1,1.86,5.22c2.52,2.31,5.52-2.94-1.56-5.4Zm-6.75.48a11.152,11.152,0,0,1,2.58,5.1c2.61,2.01,5.07-3.39-2.28-5.31ZM260.82-7.68h-7.26V-9.72c.66-.09.96-.33,1.02-.75l-.51-.03a43.567,43.567,0,0,0,5.43-2.7c.66-.06.99-.12,1.23-.36l-2.85-2.7-1.71,1.59H243.33l.24.87h12.24a33.825,33.825,0,0,1-3.06,3.18l-2.19-.21v3.15H238.29l.24.87h12.03v5.46c0,.45-.15.63-.72.63-.78,0-5.04-.3-5.04-.3V-.6A6.758,6.758,0,0,1,248.1.51a2.919,2.919,0,0,1,.93,2.07c3.99-.36,4.53-1.59,4.53-3.75V-6.81h11.49c.45,0,.75-.15.84-.48-1.2-1.11-3.27-2.73-3.27-2.73Zm2.34-12.84-1.74,1.71H256.5a35.015,35.015,0,0,0,4.92-4.56c.66.06,1.05-.12,1.2-.48l-3.96-1.44a40.813,40.813,0,0,1-3.24,6.48H242.34a9.969,9.969,0,0,0-.66-2.19l-.48.03a5.235,5.235,0,0,1-1.98,4.92,1.6,1.6,0,0,0-.96,2.04c.39.9,1.59.99,2.52.36a4.63,4.63,0,0,0,1.65-4.29h19.02c-.42,1.14-1.02,2.58-1.47,3.51l.27.21a25.061,25.061,0,0,0,4.71-3.09c.63-.03.96-.09,1.2-.36Zm18.48-1.41a10.739,10.739,0,0,1,3.3,4.74c2.7,1.86,4.8-3.57-3.03-4.98Zm-.63,7.26a10.777,10.777,0,0,1,3.39,4.62c2.76,1.8,4.8-3.69-3.12-4.83Zm-4.89-.6h4.26c.42,0,.72-.15.81-.48-.99-.99-2.67-2.43-2.67-2.43l-1.47,2.04h-.93V-21.6c1.11-.24,2.13-.51,2.97-.78.87.3,1.47.24,1.77-.03l-3.24-2.82a38.346,38.346,0,0,1-9.42,4.38l.12.42a48.178,48.178,0,0,0,5.04-.63v4.92h-5.07l.24.87h4.38a31.673,31.673,0,0,1-5.28,11.73l.39.36a25.067,25.067,0,0,0,5.34-6.21V2.55h.45a2.881,2.881,0,0,0,2.31-.81V-12.63a12.41,12.41,0,0,1,2.19,4.23c2.28,1.77,4.44-2.64-2.19-5.04Zm16.5,7.29-.75.15V-23.4c.78-.09,1.02-.42,1.08-.84l-3.87-.42V-7.32L278.76-5.34l.42.81,9.9-1.92V2.46h.57c1.02,0,2.22-.63,2.22-.96V-6.99l4.11-.78a.707.707,0,0,0,.66-.63c-1.05-.84-2.73-2.1-2.73-2.1Zm22.89-4.59v-9.18h3.69v9.18Zm-9.3-.78v9.57h-3.09v-9.57Zm16.17.78h-.42v-9.18h3.03c.42,0,.75-.15.84-.48-1.11-1.05-2.94-2.49-2.94-2.49l-1.65,2.1H310.32c-1.17-.99-2.64-2.16-2.64-2.16l-1.65,2.07h-7.95l.24.87h3.69c-.69,5.37-2.01,10.89-4.35,15.03l.42.33a26.119,26.119,0,0,0,2.49-3.27V.6h.45c1.29,0,2.1-.6,2.1-.81v-2.7h3.09V-.87h.42a3.6,3.6,0,0,0,2.19-.75V-12.99a2.244,2.244,0,0,0,1.11-.54L307.2-15.6l-1.29,1.38h-2.43l-.51-.21a35.815,35.815,0,0,0,1.98-7.41h4.89a1.461,1.461,0,0,0,.36-.03l.03.12h2.55v9.18h-3.36l.24.87h3.12c-.09,5.4-1.02,10.17-5.91,13.98l.3.33c7.08-3.42,8.22-8.82,8.34-14.31h3.69V2.49h.48c1.41,0,2.28-.6,2.28-.81V-11.7h3.69c.42,0,.72-.15.81-.48-.96-1.05-2.61-2.55-2.61-2.55Zm14.61-8.01c-.66,4.17-2.88,6.96-7.92,8.91l.12.42c6.51-1.41,9.99-4.2,11.04-9.33h3.33v5.22c0,1.83.45,2.37,3.03,2.37h2.79c4.44,0,5.43-.45,5.43-1.62,0-.48-.15-.84-.99-1.14l-.09-2.1h-.33a9.552,9.552,0,0,1-.96,2.1.847.847,0,0,1-.69.24c-.36.03-1.2.03-2.07.03h-2.37c-.84,0-.93-.09-.93-.48v-4.62h4.59a26.844,26.844,0,0,1-1.29,3.06l.3.21a24.082,24.082,0,0,0,4.35-2.67c.6-.03.9-.09,1.14-.33l-2.88-2.79-1.68,1.65h-7.5v-2.7c.75-.12.99-.39,1.02-.78l-3.96-.36v3.84h-7.35a10.39,10.39,0,0,0-.42-1.95h-.45a4.876,4.876,0,0,1-2.55,4.14,1.776,1.776,0,0,0-1.11,2.13,1.8,1.8,0,0,0,2.7.63,4.607,4.607,0,0,0,1.89-4.08ZM355.2-4.74h-.36a21.177,21.177,0,0,1-1.08,3.51.588.588,0,0,1-.57.36h-3.54c-.69,0-.81-.09-.81-.48V-8.07a1.633,1.633,0,0,0,1.05-.45L347.1-10.8l-1.47,1.59h-4.35a25.448,25.448,0,0,0,.3-3.45c.63-.09,1.02-.36,1.08-.87l-4.47-.3a26.183,26.183,0,0,1-.09,4.62h-8.46l.27.87h8.07c-.75,4.38-3.24,8.07-9.84,10.47l.21.36C336.9.54,340.05-3.33,341.1-8.34h4.83V-.66c0,1.98.42,2.61,2.91,2.61h2.4c3.84,0,5.01-.66,5.01-1.86,0-.54-.15-.9-.96-1.2Zm26.52-15.81c-.24.84-.6,1.83-.9,2.61-.81-.63-1.5-1.14-1.5-1.14l-1.65,1.98H362.19l.27.87h5.67a27.5,27.5,0,0,1-2.31,4.83c-2.19.06-4.05.12-5.31.12l1.35,3.24a1.281,1.281,0,0,0,.84-.66c7.05-.99,12.18-1.89,16.11-2.73a15.666,15.666,0,0,1,2.16,2.97c3,1.47,4.11-4.47-5.79-6.78l-.27.27a30.406,30.406,0,0,1,3.27,2.88c-3.96.27-7.8.48-11.04.63a30.681,30.681,0,0,0,4.68-4.77h9.66c.42,0,.72-.15.81-.48-.3-.27-.63-.54-.96-.81a23.268,23.268,0,0,0,3.45-2.49c.6-.06.93-.09,1.17-.33l-2.76-2.64-1.56,1.56h-8.22v-2.7c.78-.12,1.05-.42,1.11-.84l-4.05-.36v3.9h-8.01a10.556,10.556,0,0,0-.48-1.92h-.45a5.049,5.049,0,0,1-1.98,4.17,1.732,1.732,0,0,0-.9,2.1,1.633,1.633,0,0,0,2.49.33,4.474,4.474,0,0,0,1.41-3.81ZM380.88.78h-7.47V-4.26h9.03c.42,0,.72-.15.81-.48-1.14-1.05-3-2.4-3-2.4L378.6-5.13h-5.19V-8.16c.75-.12.99-.42,1.05-.84l-3.99-.33v4.2h-9.42l.24.87h9.18V.78H358.29l.24.87h26.34c.45,0,.78-.15.84-.48-1.17-1.05-3.12-2.52-3.12-2.52Z" transform="translate(15 58)"/>
  </g>
</svg>
